<?xml version="1.0" encoding="UTF-8"?>
<!-- Generator: Adobe Illustrator 26.2.1, SVG Export Plug-In . SVG Version: 6.00 Build 0)  -->
<svg xmlns="http://www.w3.org/2000/svg" xmlns:xlink="http://www.w3.org/1999/xlink" version="1.1" x="0px" y="0px" viewBox="0 0 800 800" style="enable-background:new 0 0 800 800;" xml:space="preserve">
<style type="text/css">
	.st0{display:none;}
	.st1{display:inline;fill:#FFFFFF;stroke:#000000;stroke-miterlimit:10;}
	.st2{fill-rule:evenodd;clip-rule:evenodd;}
</style>
<g id="Layer_2" class="st0">
	<rect x="68.9" y="68.9" class="st1" width="662.2" height="662.2"></rect>
</g>
<g id="Layer_3">
	<g>
		<path class="st2" d="M112.9,372.6c7.1,0.4,10.3,4,10.3,9.3c0,4.7-2.6,8.9-9.1,9.3c-6.7,0.3-22.1,0.4-29.1,0    c-0.3-6.1-0.3-12.3,0-18.6C92.8,372.4,106.3,372.2,112.9,372.6 M114.1,405.5c9.8,0.3,14.7,4.4,14.7,10.8c0,6.6-4.3,10.2-14.3,10.6    c-9.2,0.4-19.6,0.4-29.5,0c-0.4-7.3-0.4-14,0-21.4C94.5,405.2,105.5,405.2,114.1,405.5 M68.9,440.7c0.6-26.8,0.6-54,0-81.5    c13.8,0.4,29.7,0.4,44.2,0c16.7,0,25.4,10.2,25.4,20.4c0,7.5-3.5,14.4-9,17.6c9.4,2.8,14.8,10.9,14.8,20.5c0,15.6-11.3,23-25.5,23    H68.9z"></path>
		<path class="st2" d="M526.6,426.5c-0.2,4.7-0.2,9.4,0,14.2c-22.4-0.4-44.8-0.4-67.3,0c0.5-27.2,0.5-54.3,0-81.5    c5.2,0.2,10.4,0.2,15.5,0c-0.4,22.4-0.4,44.8,0,67.3C492.1,426.9,509.4,426.9,526.6,426.5"></path>
		<path class="st2" d="M277.5,359.2c15.3,18.2,31,36.4,47.3,54.6c0.4-18.2,0.4-36.4,0-54.6c4.6,0.2,9.2,0.2,13.9,0    c-0.4,26.8-0.4,54,0,81.5c-4-0.2-7.9-0.2-11.9,0c-15.9-19-32.5-38.3-49.7-57.8c-0.3,19.3-0.4,38.5,0,57.7c-4.5-0.2-9.1-0.2-13.9,0    c0.4-27.1,0.4-54.3,0-81.5C268,359.5,272.7,359.4,277.5,359.2"></path>
		<path class="st2" d="M237.9,373.5c-17.7-0.4-35.6-0.4-53.7,0c-0.4,6.1-0.4,12.3,0,18.4c12.1,0.3,24.4,0.3,36.7,0    c-0.2,4.7-0.2,9.5,0,14.2c-12.1-0.4-24.3-0.4-36.7,0c-0.4,6.8-0.4,13.6,0,20.4c18.2,0.4,36.4,0.4,54.6,0c-0.2,4.7-0.2,9.5,0,14.2    c-23.4-0.4-46.7-0.4-70.1,0c0.4-27.2,0.4-54.3,0-81.5c23.3,0.4,46.4,0.4,69.2,0C237.7,364,237.7,368.7,237.9,373.5"></path>
		<path class="st2" d="M678.2,440.7c0.4-11.5,0.4-23.2,0-35c-12-15.5-24.5-30.9-37.5-46.4c6.4,0.2,12.7,0.2,19.1,0    c8.2,10.5,16.9,21,26.1,31.6c9.2-10.5,17.9-21,26.1-31.6c6.4,0.2,12.7,0.2,19.1,0c-12.9,15.5-25.4,30.9-37.5,46.4    c-0.4,11.7-0.4,23.4,0,35C688.5,440.5,683.3,440.5,678.2,440.7"></path>
		<path class="st2" d="M617.8,373.5c-17.7-0.4-35.6-0.4-53.7,0c-0.4,6.1-0.4,12.3,0,18.4c12.1,0.3,24.4,0.3,36.7,0    c-0.2,4.7-0.2,9.5,0,14.2c-12.1-0.4-24.4-0.4-36.7,0c-0.4,6.8-0.4,13.6,0,20.4c18.2,0.4,36.4,0.4,54.6,0c-0.2,4.7-0.2,9.5,0,14.2    c-23.4-0.4-46.7-0.4-70.1,0c0.4-27.2,0.4-54.3,0-81.5c23.3,0.4,46.4,0.4,69.2,0C617.6,364,617.6,368.7,617.8,373.5"></path>
		<path class="st2" d="M392.5,440.7c0.4-22.2,0.4-44.6,0-67.3c-9.7-0.4-19.4-0.4-29.3,0c0.2-4.7,0.2-9.4,0-14.2    c24.7,0.4,49.4,0.4,74.2,0c-0.2,4.7-0.2,9.4,0,14.2c-9.8-0.4-19.5-0.4-29.3,0c-0.4,22.4-0.4,44.8,0,67.3    C402.9,440.5,397.7,440.5,392.5,440.7"></path>
	</g>
</g>
</svg>
