<?xml version="1.0" encoding="UTF-8"?>
<!-- Generator: Adobe Illustrator 26.2.1, SVG Export Plug-In . SVG Version: 6.00 Build 0)  -->
<svg xmlns="http://www.w3.org/2000/svg" xmlns:xlink="http://www.w3.org/1999/xlink" version="1.1" x="0px" y="0px" viewBox="0 0 800 800" style="enable-background:new 0 0 800 800;" xml:space="preserve">
<style type="text/css">
	.st0{fill:#FFFFFF;}
</style>
<g id="Layer_1">
</g>
<g id="Layer_2">
	<g>
		<path d="M400,660.7c69.6,0,135.1-27.1,184.4-76.4c49.2-49.2,76.4-114.7,76.4-184.4c0-69.6-27.1-135.1-76.4-184.4    c-49.2-49.2-114.7-76.4-184.4-76.4c-143.8,0-260.7,117-260.7,260.7c0,69.6,27.1,135.1,76.4,184.4    C264.9,633.6,330.4,660.7,400,660.7z"></path>
		<path class="st0" d="M148.3,400c0-67.2,26.2-130.5,73.7-178c47.5-47.5,110.8-73.7,178-73.7s130.5,26.2,178,73.7    c47.5,47.5,73.7,110.8,73.7,178c0,138.8-112.9,251.7-251.7,251.7c-67.2,0-130.5-26.2-178-73.7C174.5,530.4,148.3,467.2,148.3,400z    "></path>
		<path d="M400,158.6c-133.3,0-241.4,108.1-241.4,241.4S266.7,641.4,400,641.4S641.3,533.3,641.3,400S533.3,158.6,400,158.6    L400,158.6z"></path>
		<path class="st0" d="M400,554.2c-85.1,0-154.2-69-154.2-154.2c0-85.1,69-154.2,154.2-154.2s154.2,69,154.2,154.2    C554.2,485.1,485.1,554.2,400,554.2z"></path>
		<path d="M255.8,400H400V255.8C320.3,255.8,255.8,320.3,255.8,400z M400,400v144.2c79.7,0,144.2-64.6,144.2-144.2H400L400,400z"></path>
		<path class="st0" d="M286.7,252.9c-5.1-5-13-6.5-20.4-1.9c1.4-3.7,0.8-7.4,0.1-9.5c-3.2-5.8-4.3-6.6-6.9-8.8    c-8.5-7.2-17.5-1-23.9,6.6l-31,36.9l48.7,40.9l32.7-39C293.4,269.4,294.6,260.5,286.7,252.9L286.7,252.9z M408.1,235.4l16.7-44.4    v44.4h12.7v-63.5h-19.1L401,217.3h0.2l-17.4-45.5h-19.1v63.5h12.7V191l16.7,44.4H408.1L408.1,235.4z M579.1,261.8l-23.9,33.9    l37.1-17.6l9.8,12.1l-58.4,28.3l-11.5-14.4l23-33.6l-0.1-0.2l-37.6,15.5l-11.6-14.3l39.9-51.3l9.8,12.1l-25,32.6l38.1-16.4    L579.1,261.8L579.1,261.8z"></path>
		<path d="M242.3,248.5c2.2-2.6,7-2.5,10.2,0.2c3.4,2.9,3.5,7,1.1,9.8l-18.4,21.9l-11.5-9.7L242.3,248.5z M275,274.4l-19.4,23.1    l-12.2-10.2L263,264c2.2-2.6,7.1-3.4,10.5-0.6C277.2,266.6,277.6,271.3,275,274.4L275,274.4z"></path>
	</g>
</g>
</svg>
