<?xml version="1.0" encoding="UTF-8"?>
<!-- Generator: Adobe Illustrator 26.2.1, SVG Export Plug-In . SVG Version: 6.00 Build 0)  -->
<svg xmlns="http://www.w3.org/2000/svg" xmlns:xlink="http://www.w3.org/1999/xlink" version="1.1" x="0px" y="0px" viewBox="0 0 800 800" style="enable-background:new 0 0 800 800;" xml:space="preserve">
<style type="text/css">
	.st0{display:none;}
	.st1{display:inline;fill:#FFFFFF;stroke:#000000;stroke-miterlimit:10;}
</style>
<g id="Layer_2" class="st0">
	<rect x="68.9" y="68.9" class="st1" width="662.2" height="662.2"></rect>
</g>
<g id="Layer_3">
	<g>
		<path d="M716.2,461.8c0-3.3,2.6-5.9,5.9-5.9c3.3,0,5.9,2.6,5.9,5.9s-2.6,5.9-5.9,5.9C718.8,467.7,716.2,465.1,716.2,461.8z"></path>
		<path d="M727.3,461.8c0-2.9-2.3-5.2-5.2-5.2s-5.2,2.3-5.2,5.2c0,2.9,2.3,5.2,5.2,5.2C725,467,727.3,464.7,727.3,461.8    C727.3,461.8,727.3,461.8,727.3,461.8z"></path>
		<path d="M725.1,465.1h-1l-1.9-3h-1.5v3h-0.8v-6.6h2.9c0.6,0,1.1,0,1.6,0.3c0.5,0.3,0.7,0.9,0.7,1.4c0,1.3-0.9,1.8-2.1,1.8    L725.1,465.1L725.1,465.1z"></path>
		<path d="M722,461.4c0.9,0,2.4,0.2,2.4-1.2c0-1-0.9-1.1-1.7-1.1h-1.9v2.3L722,461.4L722,461.4z"></path>
		<g>
			<path d="M456.8,393.1c-4.1,3.2-9.2,3.6-11.4,0.7c-2.2-2.8-0.6-7.8,3.4-11c4.1-3.2,9.2-3.6,11.4-0.7     C462.5,384.9,460.9,389.9,456.8,393.1L456.8,393.1z M381.9,406c-1.3-1-3.4-1.7-6.7-1.6c-3.8,0.1-7.8,1.9-11.5,3.8     c-16.1,8.3-35.3,26.8-44.5,40.9c-4.2,6.4-4.2,9.2-3,10.3c1.1,0.9,4.4,0.4,9.1-2.3C339.8,448.8,364.9,423.7,381.9,406L381.9,406z      M299.6,405.9c-1.2-1.1-3-1.4-6.2-1.4c-3.8,0-8.5,1.5-12.2,3.3c-16.3,7.9-37.4,27.2-47,41c-4.3,6.3-4.4,9.4-3.1,10.7     c1,1,4.3,0.2,9.1-2.4C254.7,449.2,282.2,423.2,299.6,405.9L299.6,405.9z M454.9,440.1c30-20,56-45.5,67.6-61.9     c6.3-8.9,2.6-12.9-6.5-7.1C491.8,386.5,460.9,419.2,454.9,440.1L454.9,440.1z M639.3,405.9c-1.2-1.1-3-1.4-6.2-1.4     c-3.8,0-8.5,1.5-12.2,3.3c-16.3,7.9-37.4,27.2-47,41c-4.3,6.3-4.4,9.4-3.1,10.7c1,1,4.3,0.2,9.1-2.4     C594.4,449.2,621.9,423.2,639.3,405.9L639.3,405.9z M723.7,441.1l1.1,4.4c-6,6.5-21,16.7-37.4,20.6c-13.7,3.2-23.8,1.2-29.7-4.8     c-5-5.1-5.9-13.5-2.9-22c-27.9,26.2-43.9,28.9-49.4,24.1c-4.7-4.2-3.3-13.9,2.3-21.4c-8.4,7.2-17.6,14.5-25,18.8     c-12,7-18.6,4.3-19.8-3.4c-0.6-3.9,1.1-9.2,4.1-14.7c-23.9,20.6-41.9,24.7-52.5,21.4c-4.5-1.4-7.6-5.2-9-10.4     c-31.2,16.6-56.7,15.5-62.2-0.5c-19,10.4-37.3,15.1-44.5,10.6c-5.6-3.5-8.1-10.8-2.4-22.2c-19.6,17.9-36.8,28-45.7,22.2     c-5.4-3.5-3.7-14.5,1.5-22c-8.2,7.4-16.6,14.4-23.9,18.9c-11.8,7.3-18.9,4.6-20-3.1c-0.6-4.2,1.2-9.9,4.2-15.7     c-25,23-41.3,26.9-46.9,21.4c-4.5-4.5-3.3-13.6,2.3-21.2c-8.4,7.2-17.6,14.5-25,18.8c-12,7-18.6,4.3-19.8-3.4     c-0.7-4.5,1.6-10.6,5.5-17c-32,26.2-72,47.3-99,47.3c-33.5,0-43.2-24.2-31.1-53c4.1-9.9,12.2-21,22.3-31.4     c-30.5-2-44.5-9-50.2-19.6c-3.9-7.3-2.2-20.6,12.2-32.6c21.8-18.3,63.3-29.9,95.1-33.5c7.2-0.8,13.4-1.1,16.9-1l2.9,5.3     c-28.2-2.6-80.1,10.8-102.1,30.7c-15.2,13.7-14.1,26.3-6.6,34.2c5.3,5.6,14.4,10.2,37.3,11.2c2.4-2.2,4.9-4.4,7.5-6.5     c46-37.5,120.1-71.1,170-78c13-1.8,25.2-1.1,27.6,8.1c3,11.3-8.6,29-49.4,49.3c-35.2,17.5-92.9,32.8-141.2,33     c-10.6,11-19.2,22-25.6,32.7c-15,25.1-8,45.8,15.8,45.9c33.2,0.1,78.3-30.4,108.1-56.6c5.6-5,11.6-9.3,18.1-13.1     c8.1-5,15.6-8.3,23.1-10.4c13.6-3.7,28.2-3.6,37.4,2.3c-0.7,0.5-2.1,1.4-3.2,2.3c-18.7,15.4-37.9,36.5-42.8,45.2     c-1.7,3-2.3,5.7-1,7.1c4,4.2,24.3-6,52.9-33.7c3.1-3.1,6.5-5.9,10.1-8.4c9.7-7.4,19.7-12.5,27.6-14.7c12.9-3.5,21.5-3,27-1     c9-8.6,24.8-23.2,36.5-34.1c5.7,0,9.8,0,15.6-0.2c-1,0.7-1.9,1.2-2.8,2c-8.6,7.8-26.4,23.7-41.2,37.7     c-18.2,17.1-34.2,34.3-39.9,44.4c-2.2,3.9-3,6.6-1.2,8.1c4.2,3.4,22.4-5.9,49.2-30.8c9.1-9.6,18.5-18.9,28.3-27.8     c5.5,0,10.2,0,16.1-0.1c-1.7,1.1-3.4,2.3-5,3.7c-11.7,10.8-31.2,29-38.7,39.8c-6,8.7-4.8,12.7-2.2,14.7c4.9,3.6,22.8-1,39.8-10.4     c-0.5-6.8,2.1-15.7,7.1-24.5c8.6-15,28.3-36.4,59.5-54.3c9.3-5.3,16.4-7.1,19.9-3.7c3.3,3.2,2.5,9.8-2.9,18     c-15.4,23.2-43.4,44.2-73,63.5c-1.8,11.6,15.5,20.9,51.3,1.3c-0.3-6.9,2-15.6,7.9-24.8c11-17.3,32.3-38.6,60-54.4     c9.3-5.3,16.1-7.3,19.9-3.6c3.4,3.3,2.6,9.8-2.9,18c-14.5,21.9-36.6,39.1-73.8,64.1c-2,9.9,4.9,16.5,23.8,7     c10.1-5,23.2-14.6,41.3-30.4c1.3-1.1,2.7-2.3,4-3.3c1.2-1,2.5-2,3.7-2.9c11.4-8,21.4-13.1,31.3-15.8c13.6-3.7,28.2-3.6,37.4,2.3     c-0.7,0.5-2.1,1.4-3.2,2.3c-18.7,15.4-37.8,36.2-42.8,45c-1.7,3-2.2,5.8-0.8,7.1c3,3,20.3-2.3,51.5-32.6     c4.8-4.7,7.8-7.5,11.6-10.4c10.4-8.2,21.4-13.9,32.3-17.1c11.7-3.4,23.4-3,24.9,5.8c1.8,10.6-10.5,19.8-22.6,24.1l-0.4-4.6     c9-6,16.8-15.6,13.2-20.6c-2.1-3-8.2-2.6-17,1.4c-9.9,4.5-26,18.8-34.3,32c-5.6,8.8-6.8,17.8-2.5,22c4.3,4.2,11.1,4.6,19.4,2.8     C698.3,459,714.5,450.3,723.7,441.1L723.7,441.1z M146.6,397.9c50.6-1.6,93.7-16.6,139.5-38.8c28.8-14,41.9-28.5,40-36.3     c-1.6-6.5-11.3-6.5-21.7-4.9c-48.2,7.2-116.5,42.7-149,71.7C152.4,392.4,149.4,395.1,146.6,397.9L146.6,397.9z M517.3,440.8     c30.2-20.1,58-47.2,69.4-63.9c5.1-7.5,0.8-10.9-6.1-6.7C556.5,385.1,523.8,419.1,517.3,440.8L517.3,440.8z"></path>
		</g>
	</g>
</g>
</svg>
