<?xml version="1.0" encoding="UTF-8"?>
<!-- Generator: Adobe Illustrator 26.2.1, SVG Export Plug-In . SVG Version: 6.00 Build 0)  -->
<svg xmlns="http://www.w3.org/2000/svg" xmlns:xlink="http://www.w3.org/1999/xlink" version="1.1" x="0px" y="0px" viewBox="0 0 800 800" style="enable-background:new 0 0 800 800;" xml:space="preserve">
<style type="text/css">
	.st0{display:none;}
	.st1{display:inline;fill:#FFFFFF;stroke:#000000;stroke-miterlimit:10;}
	.st2{fill-rule:evenodd;clip-rule:evenodd;}
</style>
<g id="Layer_2" class="st0">
	<rect x="68.9" y="68.9" class="st1" width="662.2" height="662.2"></rect>
</g>
<g id="Layer_3">
	<g>
		<polygon class="st2" points="182,390.9 154.5,390.9 154.5,354 135.2,354 135.2,446.1 154.5,446.1 154.5,404.9 182,404.9     182,446.1 201.2,446.1 201.2,354 182,354   "></polygon>
		<polygon class="st2" points="640.7,354 640.7,368.1 666.8,368.1 666.8,446.1 686.1,446.1 686.1,368.1 712.1,368.1 712.1,354   "></polygon>
		<polygon class="st2" points="539.2,354 520,354 520,446.1 574.9,446.1 574.9,432.1 539.2,432.1   "></polygon>
		<path class="st2" d="M319.2,430.8c-0.3,1-1,1.2-2,1.2s-1.7-0.4-2-1.3L295,353.9h-22.5l23.3,84.1c1.1,5.5,4.8,8.1,10,8.1h17.8    c5.2,0,8.6-2.7,9.9-8l22.7-84.2h-17L319.2,430.8L319.2,430.8z"></path>
		<path class="st2" d="M70.5,368.4v63.3c0,10.3,5.3,14.4,14.4,14.4h43V432H96.9c-5.3,0-7.1-1.3-7.1-7.1V375c0-5.5,1.3-7,7-7h31.1    v-14.1H84.9C75.1,354,70.5,359.1,70.5,368.4L70.5,368.4z"></path>
		<path class="st2" d="M232,425v-20.1h38.2v-14.1h-38.1v-15.8c0-5.3,1.2-7,7-7h31.6V354h-43.4c-9.9,0-14.4,5-14.4,14.4v63.3    c0,9.7,4.7,14.4,14.4,14.4h47.4V432H239C233.8,432,232,430.8,232,425L232,425z"></path>
		<path class="st2" d="M412.3,407.2c8.9,0,14.4-4.1,14.4-14.4v-24.4c0-9.6-4.5-14.4-14.4-14.4h-53.6v92h19.3V368h22.5c6,0,7,1.7,7,7    v11.2c0,5.4-1.5,7.1-7.1,7.1h-10.5c-4.1,0-6.4,2.5-6.4,6.4c0,2,1,3.4,1.8,4.9l24.3,41.4h23.8L408,407.2H412.3L412.3,407.2z"></path>
		<path class="st2" d="M494,354h-42.3c-10.2,0-14.4,5.2-14.4,14.4v63.3c0,10.5,5.6,14.4,14.4,14.4h21.3H494    c9.2,0,14.4-4.4,14.4-14.4v-63.3C508.3,359,503.9,354,494,354L494,354L494,354z M482.1,432h-9.2h-9.4c-5.5,0-7.1-1.5-7.1-7.1V375    c0-4.8,0.7-7,7-7H482c5,0,7,0.9,7,7v49.9C489.2,430.9,487.4,432,482.1,432L482.1,432z"></path>
		<path class="st2" d="M597.9,425v-20.1h38.2v-14.1H598v-15.8c0-5.3,1.2-7,7-7h31.6V354h-43.4c-10,0-14.4,5-14.4,14.4v63.3    c0,9.7,4.7,14.4,14.4,14.4h47.4V432H605C599.6,432,597.9,430.8,597.9,425L597.9,425z"></path>
		<path class="st2" d="M726.4,359.1c0-1.6-1.3-1.9-2.6-1.9h-3.1v7.2h1v-3.2h1.4l2.1,3.2h1.1l-2.1-3.3    C725.4,361.1,726.4,360.5,726.4,359.1L726.4,359.1L726.4,359.1z M723.6,360.4h-1.9v-2.3h1.9c0.8,0,1.8,0.1,1.8,1    C725.4,359.8,725,360.4,723.6,360.4L723.6,360.4z"></path>
		<path class="st2" d="M723.1,354.4c-3.6,0-6.5,2.9-6.5,6.4c0,3.6,2.9,6.4,6.5,6.4l0,0c3.6,0,6.4-2.9,6.4-6.4    C729.5,357.3,726.6,354.4,723.1,354.4L723.1,354.4L723.1,354.4z M723.1,366.2L723.1,366.2c-3,0-5.4-2.5-5.4-5.5s2.4-5.4,5.4-5.4    c3,0,5.4,2.4,5.4,5.4C728.4,363.8,726,366.2,723.1,366.2L723.1,366.2z"></path>
	</g>
</g>
</svg>
