<?xml version="1.0" encoding="UTF-8"?>
<!-- Generator: Adobe Illustrator 26.2.1, SVG Export Plug-In . SVG Version: 6.00 Build 0)  -->
<svg xmlns="http://www.w3.org/2000/svg" xmlns:xlink="http://www.w3.org/1999/xlink" version="1.1" x="0px" y="0px" viewBox="0 0 800 800" style="enable-background:new 0 0 800 800;" xml:space="preserve">
<g id="Layer_1">
</g>
<g id="Layer_2">
	<g id="LWPOLYLINE_9_">
		<g id="XMLID_3_">
			<g>
				<path d="M730.1,456.4c0,5.4,0,10.6,0,16c-16.8,0-33.6,0-50.3,0c0-5.4,0-10.6,0-16c4.3,0,7.6,0,10.8,0c0-25,0-50.2,0-75.3      c-3.6,0-7.3,0-11,0c0-4.9,0-9.8,0-14.7c13.3,0,26.4,0,39.7,0c0,29.9,0,60,0,89.9C723,456.4,726.5,456.4,730.1,456.4z"></path>
				<rect x="689.9" y="325.3" width="29.1" height="19.2"></rect>
				<polygon points="675.1,325.3 675.1,344.7 120.6,344.7 120.6,389.5 135.7,389.5 135.7,376.5 153.3,376.5 153.3,421 135.7,421       135.7,406.9 120.6,406.9 120.6,456.3 146.8,456.3 146.8,472.3 69.9,472.3 69.9,456.3 90.3,456.3 90.3,344.7 74.2,344.7       74.2,325.3     "></polygon>
				<path d="M666.1,378.9c0,16,0,31.9,0,47.9c-9.1,0-18.1,0-27.1,0c0-13.4,0-26.8,0-40.2c0-0.2-0.1-0.3-0.2-0.5      c-0.2-0.1-0.3,0-0.5,0.1c-0.3,0.3-0.8,0.7-1.2,1.2c-0.8,0.8-1.6,1.7-2.4,2.7c-1,1.2-2,2.3-2.9,3.5c-1.5,1.7-3,3.6-4.5,5.4      c-2.7,3.3-5.4,6.8-7.7,10.5c-1.3,2-2.4,4.1-3.6,6.2c0,13.6,0,27.1,0,40.8c3.3,0,6.6,0,9.9,0c0,5.4,0,10.7,0,16      c-16.2,0-32.4,0-48.5,0c0-5.4,0-10.7,0-16c3.3,0,6.6,0,9.9,0c0-25,0-50.2,0-75.3c-3.4,0-6.8,0-10.1,0c0-4.9,0-9.8,0-14.6      c12.9,0,25.9,0,38.8,0c0,8.4,0,16.7,0,25c1.2-1.7,2.3-3.5,3.5-5.2c2.1-3.1,4.4-6.2,6.8-9.1c2.1-2.4,4.2-4.9,6.6-7      c2.2-1.9,4.7-3.5,7.2-4.5c1.9-0.7,4-1.2,5.9-1.3c3.3-0.2,6.6,0.1,9.7,1.4c1.5,0.6,2.9,1.5,4.3,2.4c1.3,0.9,2.4,2.1,3.3,3.4      c0.9,1.4,1.5,3,2.1,4.7C665.7,377.3,665.9,378.1,666.1,378.9z"></path>
				<path d="M566.3,456.6c0,5.2,0,10.5,0,15.8c-24.3,0-48.7,0-73.2,0c-11.1-0.7-19.2-8.2-20.9-19.1c0-0.5-0.1-0.9-0.1-1.3      c0-6.3,0-12.6,0-18.8c0-0.3,0-0.6,0-0.9c0.1-1.3,0.3-2.6,0.6-3.8c0.5-1.7,1.2-3.5,2.1-5c1-1.9,2.3-3.5,4-4.9      c1.6-1.4,3.4-2.4,5.2-3.3c2.6-1,5.1-1.9,7.8-2.3c0.6-0.1,1.2-0.2,1.9-0.2c11.2,0,22.4,0,33.6,0c0-9.2,0-18.4,0-27.5      c0-1-0.2-2.1-0.8-3c-0.1-0.3-0.3-0.6-0.6-0.8c-0.6-0.8-1.2-1.3-2-1.6c-1.2-0.6-2.4-0.7-4-0.8c-2.7-0.2-5.6-0.2-8.4-0.1      c-2.2,0-4.4,0.1-6.4,0.9c-1.2,0.6-2.3,1.4-3,2.4c-0.6,0.9-0.8,2-1.2,4c0,0.2,0,0.6,0,0.8c0,4.1,0,8.3,0,12.3      c-8.6,0-17.2,0-25.7,0c0-3.6,0-7.2,0-10.8c0-1.6,0.1-3.1,0.5-4.7c0.2-1,0.5-2.1,0.6-3c0.3-1.5,0.6-3,1.2-4.4      c0.9-2,2.4-3.5,4.2-4.9c1.6-1.3,3.4-2.4,5.4-3.3c4.3-2,9.2-2.6,14-2.9c5.5-0.5,10.8-0.5,16.3-0.6c5.5-0.1,11-0.1,16.3,0.5      c3.1,0.5,6.3,1,9.3,2.1c1.9,0.6,3.6,1.3,5.2,2.2c1.2,0.7,2.3,1.6,3.3,2.7c1.2,1.3,2.1,2.8,2.7,4.4c0.5,1.2,0.8,2.3,1.2,3.5      c0.2,0.8,0.3,1.5,0.3,2.3c0,24.8,0,49.6,0,74.4C559.3,456.6,562.8,456.6,566.3,456.6z M527.3,448.9v-24.7h-19.5      c-4.8,0-8.7,3.8-8.7,8.7v16c0,4.8,3.8,8.7,8.7,8.7h10.7C523.3,457.6,527.3,453.7,527.3,448.9z"></path>
				<path d="M459.4,378.9c0,16,0,31.9,0,47.9c-9.1,0-18.1,0-27.1,0c0-13.4,0-26.8,0-40.2c0-0.2-0.1-0.3-0.2-0.5      c-0.2-0.1-0.3,0-0.5,0.1c-0.3,0.3-0.8,0.7-1.2,1.2c-0.8,0.8-1.6,1.7-2.4,2.7c-0.9,1.2-2,2.3-2.9,3.5c-1.5,1.7-3,3.6-4.5,5.4      c-2.7,3.3-5.4,6.8-7.7,10.5c-1.3,2-2.4,4.1-3.6,6.2c0,13.6,0,27.1,0,40.8c3.3,0,6.6,0,9.9,0c0,5.4,0,10.7,0,16      c-16.2,0-32.4,0-48.6,0c0-5.4,0-10.7,0-16c3.3,0,6.6,0,9.9,0c0-25,0-50.2,0-75.3c-3.4,0-6.8,0-10.1,0c0-4.9,0-9.8,0-14.6      c12.9,0,25.9,0,38.8,0c0,8.4,0,16.7,0,25c1.2-1.7,2.3-3.5,3.5-5.2c2.1-3.1,4.4-6.2,6.8-9.1c2.1-2.4,4.2-4.9,6.6-7      c2.2-1.9,4.5-3.5,7.2-4.5c1.9-0.7,4-1.2,5.9-1.3c3.3-0.2,6.6,0.1,9.7,1.4c1.5,0.6,2.9,1.5,4.3,2.4c1.3,0.9,2.4,2.1,3.4,3.4      c0.9,1.4,1.5,3,2.1,4.7C458.8,377.3,459,378.1,459.4,378.9z"></path>
				<path d="M359.2,378.9c0,16,0,31.9,0,47.9c-9.1,0-18.1,0-27.1,0c0-13.4,0-26.8,0-40.2c0-0.2-0.1-0.3-0.2-0.5      c-0.1-0.1-0.3,0-0.5,0.1c-0.3,0.3-0.8,0.7-1.2,1.2c-0.8,0.8-1.6,1.7-2.4,2.7c-1,1.2-2,2.3-2.9,3.5c-1.5,1.7-3,3.6-4.5,5.4      c-2.7,3.3-5.4,6.8-7.7,10.5c-1.3,2-2.4,4.1-3.6,6.2c0,13.6,0,27.1,0,40.8c3.3,0,6.6,0,9.9,0c0,5.4,0,10.7,0,16      c-16.2,0-32.4,0-48.5,0c0-5.4,0-10.7,0-16c3.3,0,6.6,0,9.9,0c0-25,0-50.2,0-75.3c-3.4,0-6.8,0-10.1,0c0-4.9,0-9.8,0-14.6      c12.9,0,25.9,0,38.8,0c0,8.4,0,16.7,0,25c1.2-1.7,2.3-3.5,3.5-5.2c2.1-3.1,4.4-6.2,6.8-9.1c2.1-2.4,4.2-4.9,6.6-7      c2.2-1.9,4.7-3.5,7.2-4.5c1.9-0.7,4-1.2,5.9-1.3c3.3-0.2,6.6,0.1,9.7,1.4c1.5,0.6,2.9,1.5,4.3,2.4c1.3,0.9,2.4,2.1,3.3,3.4      c0.9,1.4,1.5,3,2.1,4.7C358.7,377.3,358.9,378.1,359.2,378.9z"></path>
				<path d="M255,381.2c0,15.3,0,30.4,0,45.7c-18.9,0-37.7,0-56.6,0c0,7.9,0,15.8,0,23.8c0,3.3,2.1,5.7,5.4,6.3      c0.8,0.1,1.6,0.2,2.4,0.2c4.2,0.3,7.9,0.3,11.9,0.1c1.5-0.1,3.1-0.2,4.7-0.7c1.2-0.3,2.3-0.8,3.1-1.5c0.8-0.7,1.3-1.7,1.7-2.9      c0.3-0.7,0.5-1.5,0.5-2.3c0-4.1,0-8.2,0-12.1c9,0,17.9,0,26.9,0c0,6.8,0,13.5,0,20.3c0,1.7-0.3,3.4-1,5v0.1      c-0.8,1.7-1.6,3.5-3,4.8c-1.7,1.7-4.2,3-6.8,3.8c-4.3,1.6-8.6,2.1-12.9,2.3c-6.6,0.5-13.5,0.6-20.5,0.6      c-6.2,0-12.3-0.2-18.5-1.2c-5.1-0.7-10-2-14.2-4.8c-2.3-1.6-4.5-3.7-5.8-6.2c-0.7-1.3-1.2-2.7-1.5-4.2c-0.3-1-0.5-2.2-0.5-3.3      c0-23.1,0-46.1,0-69.2c0.1-1.3,0.2-2.4,0.5-3.7c0.5-2.3,1.4-4.4,2.7-6.4c1.4-2.2,3.3-4.1,5.5-5.6c3.6-2.3,8-3.5,12.3-4.2      c7.8-1.3,15.5-1.3,23.4-1.3c4.5,0,9.2,0,13.6,0.3c4.7,0.3,9.3,1.3,13.7,2.8c2,0.7,4,1.5,5.8,2.7c1.7,1.2,3.4,2.6,4.5,4.3      c0.9,1.4,1.6,3.1,2.2,4.8C254.7,380.2,254.9,380.7,255,381.2z M226.1,415.7v-30.4c0-3.5-2.8-6.4-6.4-6.4h-15      c-3.5,0-6.4,2.8-6.4,6.4v30.4H226.1z"></path>
			</g>
		</g>
	</g>
</g>
</svg>
