<?xml version="1.0" encoding="UTF-8"?>
<!-- Generator: Adobe Illustrator 26.2.1, SVG Export Plug-In . SVG Version: 6.00 Build 0)  -->
<svg xmlns="http://www.w3.org/2000/svg" xmlns:xlink="http://www.w3.org/1999/xlink" version="1.1" x="0px" y="0px" viewBox="0 0 800 800" style="enable-background:new 0 0 800 800;" xml:space="preserve">
<g id="Layer_1">
</g>
<g id="Layer_2">
	<g>
		<path d="M529,423.8c-0.2,0.4-0.2,0.7-0.1,1.1c0.1,0.5,0.8,1.1,1.5,1.3c0.3,0.1,0.4,0.3,0.1,0.9c-2,4.3-3.9,6.9-6.5,10.7    c-2.3,3.5-5,6.2-8.2,8.9c-4.8,4-11.6,8.3-17.1,5.4c-2.5-1.3-3.5-4.7-3.5-7.5c0.1-7.9,3.6-15.9,10-23.8c7.9-9.7,16.6-14.7,22.2-12    C533.5,411.6,531.6,418.4,529,423.8z M102.1,400c0-57.9,133.3-104.8,297.8-104.8S697.8,342.1,697.8,400S564.4,504.8,399.9,504.8    C235.5,504.9,102.1,457.9,102.1,400z M209.2,436.4c1.8,19.1,17.6,30.2,35.4,30c14.2-0.1,27.6-4.4,43.7-20.8    c15-15.3,28.7-38.1,41.5-59.2c0.4-0.7,0.7-1,2.6-1.3c8-1,19.9-2.1,27.5-2.6c1.7-0.1,2.1-0.1,2.7,0.7c2,2.5,4.9,4.6,7.3,5.9    c1.1,0.7,1.7,0.9,2.6,1c1.1,0,2-0.6,2.5-1.2c0.8-0.9,1.1-2.1,0.6-2.8c-0.5-0.8-5.7-3.7-5.9-4.9c-0.1-0.7,0.7-0.9,0.7-0.9    c3.9-1.2,7.9-3.7,10.4-8.4c2.4-4.7,2.8-10.8-1.6-14.3c-3.9-3-9.7-2.5-14.4,1.7c-4.5,4.1-6.1,10-5.5,15.2c0.1,0.9,0.1,1.2-1.2,1.3    c-7,0.5-13.8,0.7-21.4,1.1c-0.5,0.1-0.7-0.3-0.4-0.7c8.7-15.1,21.6-25.8,36-36.4c0.9-0.7,0.7-2.1,0.6-3.2    c25.8,5.6,50.9,16.1,77.7,15.9c11.1-0.1,21.7-1.8,31.8-7.3c8.9-4.9,12.6-9.3,12.8-14.1c0.2-3.3-2.1-5.3-5.3-4.6    c-27.1,6.2-52.9,6.1-80,2.9c-35.2-4.3-68.8-13.7-104.2-10.8c-29.4,2.5-57.5,19-57.6,44.3c-0.1,12.8,9,23.1,23.1,22.6    c16.5-0.5,30-13.8,37.2-30.4c2.7-6.3-2.3-8.9-4.7-5.3c-4.3,6.5-10.2,11.7-16.7,14.8c-7.7,3.8-16.1,2.8-18.6-3.5    c-3.5-8.9,3.8-22.2,20.6-28.5c24.2-9,49.7-3,74,1.5c0.3,0,1.7,0.7,0.5,1.3c-4.3,2.4-8.7,4.3-15.4,10.1c-4.8,4.1-11.1,9.6-16,15.6    c-4.8,5.9-8.3,11.2-12.8,17c-0.6,0.9-1.4,0.8-1.4,0.8c-11.1,1.9-21.9,3.1-31.8,10c-2.1,1.4-2.9,3.9-1.7,5.8    c1.1,1.7,3.7,1.9,5.5,0.6c6.1-4.6,12.5-6.7,19.8-6.9c0.3,0,0.5,0.1,0.5,0.3c0.1,0.1,0,0.3-0.1,0.5c-10.9,15.1-13.6,18.5-21.8,27.9    c-4.2,4.8-8.3,8.9-13,13.1c-18.6,17.3-38.6,17-45.8,6.1c-4.3-6.5-3.7-13.4-0.9-19c3.5-6.9,10.5-12,16.3-15    c2.1-1.1,2.8-3.9,0.6-6.3c-1.4-1.7-4.7-1.9-7.2-1.5c-7.6,1.4-16.6,7.1-21.9,14.1C211.2,416.3,208.2,425.8,209.2,436.4z     M591.2,362.4c-4.9,0-11.4,0-16.6,0c-1.2,0-1.9,0.1-2.4,1.3c-1.9,3.7-25,38.3-29.3,45c-0.7,1-1.6,0.9-1.7-0.3    c-0.4-4-3.9-8.6-9.3-10.7c-4.1-1.7-8.2-2-12.4-1.4c-7.6,1-14.4,5-20.3,9.5c-8.9,6.8-16.7,15.7-26.7,22.2c-5.5,3.5-13,6.7-17.9,2    c-4.5-4.2-4-13.5,2.9-20.7c0.7-0.7,1.6-0.1,1.5,0.5c-0.7,3.3,0.1,6.5,2.6,8.7c3,2.7,7.3,3,11,1.2c4.3-2.1,6.9-6.3,7.7-11.1    c1.1-7.3-4.5-13.8-11.6-14.4c-5.7-0.4-11.3,1.6-16.6,6c-2.7,2.3-4.2,3.9-6.5,7.2c-0.6,0.8-1.5,0.9-1.4-0.3    c0.3-9.4-3.6-14.7-11.4-14.9c-6-0.1-12.5,3.1-17.5,7.1c-5.5,4.4-10.3,10.3-15.5,15.8c-0.7,0.7-1.2,0.7-1.3-0.7    c-0.1-6.2-1.7-12.3-4.6-16.6c-1-1.5-3.1-2.2-4.9-1.2c-0.9,0.5-3.7,1.8-5.9,3.5c-1.1,0.9-1.5,2.1-1,3.7c2.8,9.3,2.2,19.9-1.6,28.8    c-3.5,8.2-10.2,15.6-18.2,18.1c-5.2,1.7-10.7,0.9-14-3.8c-4.6-6.4-2.7-17.5,4.1-26.7c6.1-8.1,14.8-13.3,23.6-16.6    c1-0.4,1.3-1.1,0.9-1.9c-0.5-1.5-1.2-3.4-1.5-4.3c-0.8-2.1-3.1-2.5-5.8-2.2c-6.3,0.7-12.1,2.9-17.8,5.9    c-14.8,7.9-22.3,23.4-25.6,31.6c-1.5,3.9-2.9,6.4-4.7,8.6c-2.3,2.9-5.3,5.6-10.7,10.3c-0.5,0.5-0.8,1.3-0.4,2.2    c0.5,1.1,3.3,5.1,4.1,5.4c0.9,0.5,1.9-0.1,2.3-0.5c3.7-2.5,8.3-6.6,10.5-9.3c0.8-0.9,1.5-0.5,2,0.9c2.1,7.3,7.4,13.4,14.9,15.8    c13.6,4.6,27.8-2.1,38.4-13.6c6.7-7.3,9.2-12.1,11.8-15.3c4.4-5.5,13.1-17.6,23.4-25.5c3.8-2.9,8.3-5.1,10.5-3.6    c1.8,1.2,2.4,3.9-0.5,9.1c-10.5,19.2-26,41.9-28.9,47.3c-0.5,0.9-0.1,1.7,0.9,1.7c5.5,0,11,0,16,0c0.9-0.1,1.2-0.4,1.6-1    c8.1-12.7,15.7-24.7,23.8-37.2c0.5-0.7,0.9-0.1,0.9,0.1c0.1,2.9,0.9,6.9,2.6,9.4c3.1,4.8,7.5,6.9,12.3,6.9    c3.9,0.1,5.8-0.5,9.9-2.1c3.4-1.3,6.1-2.9,8.2-4.4c1.2-0.9,1.4,0.6,1.4,0.8c-1.9,10.1,0.4,22,10.4,26.9c12,5.9,25.1-2.4,32.6-9.9    c0.7-0.7,1.5-0.7,1.6,0.9c0.1,2.9,1.5,6.3,3.8,8.6c6.3,6.3,19.1,3.8,31.9-6.1c8.2-6.3,16.8-15.4,24.6-24.8c0.3-0.4,0.5-1-0.1-1.5    c-1.2-1.3-2.9-2.7-4.1-3.7c-0.5-0.5-1.3-0.3-1.8,0c-7.9,7.6-15.2,16.2-25.5,23.4c-3.5,2.5-9.1,4.4-11.6,1c-1-1.3-0.9-3.1,0.1-5.5    c3-7.5,50.9-80.5,53.4-84.8C592.6,363,592.2,362.4,591.2,362.4z M365.9,372.3c0.2,1.1,0.6,1.3,1.1,1.2c2.4-0.5,5.1-2.5,6.7-4.8    c1.5-2.1,2.1-5.1,0.7-6.3c-1.3-1.1-3.3-0.8-4.9,0.6C366.5,365.5,365.6,369.4,365.9,372.3z"></path>
		<path d="M400,269c-181.6,0-327.2,58.2-327.2,131C72.8,472.4,219.6,531,400,531S727.2,472.3,727.2,400    C727.2,327.8,580.4,269,400,269z M400,285.3c170.5,0,308.7,51.3,308.7,114.8c0,13.9-6.6,27.2-18.8,39.5    c-43.3,43.9-156.8,75.2-289.9,75.2c-170.5,0-308.7-51.4-308.7-114.8S229.5,285.3,400,285.3z"></path>
	</g>
</g>
</svg>
