<?xml version="1.0" encoding="UTF-8"?>
<!-- Generator: Adobe Illustrator 26.2.1, SVG Export Plug-In . SVG Version: 6.00 Build 0)  -->
<svg xmlns="http://www.w3.org/2000/svg" xmlns:xlink="http://www.w3.org/1999/xlink" version="1.1" x="0px" y="0px" viewBox="0 0 800 800" style="enable-background:new 0 0 800 800;" xml:space="preserve">
<g id="Layer_1">
</g>
<g id="Layer_2">
	<g>
		
			
		<g id="g2993" transform="matrix(1.25,0,0,-1.25,-1795.1326,711.62505)">
			<g id="g3045" transform="matrix(5.4202527,0,0,5.4202527,2103.3002,397.09971)">
				<path id="path3047" d="M-31.5-31.4c-0.1-4.4,0.9-6.7,4.5-6.7c3.6,0,4.1,3.9,4.1,6.9c0,3-0.7,5.9-4.5,5.9      C-29.7-25.3-31.4-27.1-31.5-31.4z M-38.8-49.7v29.6h7.4c0,0,0-0.4,0-1.2c0-1.6,0.6-0.9,1.2-0.3c0.1,0.1,1.7,2.1,5.4,2.1      c3.7,0,9.4-2.6,9.4-11.7c0-7-3.4-12.2-9.4-12.2c-3.3,0-5.2,1.3-5.6,1.8c-0.4,0.5-1,0.6-1,0c0-0.6,0-8.2,0-8.2H-38.8"></path>
			</g>
			<g id="g3049" transform="matrix(5.4202527,0,0,5.4202527,1575.2049,568.90004)">
				<path id="path3051" d="M1.6-42.2h8c0,0,0-17.3,0-20.9c0-3.6-1.5-11.2-12.6-11.2c-11.1,0-12.3,7-12.3,11v3.9h7.7c0,0,0-1.5,0-3.8      c0-2.3,1.5-4.5,4.5-4.5c2.9,0,4.7,1.6,4.7,4.4C1.6-60.6,1.6-42.2,1.6-42.2"></path>
			</g>
			<g id="g3053" transform="matrix(5.4202527,0,0,5.4202527,1777.646,423.16029)">
				<path id="path3055" d="M-11.1-33.1c0,2.1-1.2,4.2-3.9,4.2c-2.7,0-3.6-1.9-3.6-4.2H-11.1z M-15.8-24.1c6.3,0,11.8-2.4,11.8-13.5      h-14.8c0-3.5,1.5-5,4-5c2.6,0,3.4,2.1,3.4,2.1h7.3c0-3.2-4.4-7.5-11-7.4c-7.5,0-11.2,5.6-11.2,11.3      C-26.4-30.8-23.1-24.1-15.8-24.1"></path>
			</g>
			<g id="g3057" transform="matrix(5.4202527,0,0,5.4202527,1972.3577,423.16029)">
				<path id="path3059" d="M-23.3-33.1c0,2.1-1.2,4.2-3.9,4.2c-2.7,0-3.6-1.9-3.6-4.2H-23.3z M-28-24.1c6.3,0,11.8-2.4,11.8-13.5      h-14.8c0-3.5,1.5-5,4-5c2.6,0,3.4,2.1,3.4,2.1h7.3c0-3.2-4.4-7.5-11-7.4c-7.6,0-11.2,5.6-11.2,11.3      C-38.6-30.8-35.3-24.1-28-24.1"></path>
			</g>
			<g id="g3061" transform="matrix(5.4202527,0,0,5.4202527,2195.6071,276.25518)">
				<path id="path3063" d="M-37.3-23.9c0,1.2,1,2.1,2.1,2.1c1.2,0,2.1-1,2.1-2.1c0-1.2-1-2.1-2.1-2.1C-36.3-26-37.3-25-37.3-23.9z       M-37.5-23.9c0-1.3,1.1-2.4,2.4-2.4c1.3,0,2.4,1.1,2.4,2.4c0,1.3-1.1,2.4-2.4,2.4C-36.5-21.5-37.5-22.6-37.5-23.9"></path>
			</g>
			<g id="g3065" transform="matrix(5.4202527,0,0,5.4202527,2220.9034,266.28191)">
				<path id="path3067" d="M-38.9-23.3l-0.5,1.2c0.2,0.1,0.2,0.1,0.3,0.2c0.1,0.1,0.2,0.3,0.2,0.5c0,0.4-0.3,0.7-0.8,0.7h-1v-2.5      h0.3v1.1h0.7l0.5-1.1H-38.9z M-40.4-21.9v0.9h0.7c0.3,0,0.5-0.2,0.5-0.4c0-0.3-0.2-0.5-0.5-0.5L-40.4-21.9"></path>
			</g>
		</g>
	</g>
</g>
</svg>
