<?xml version="1.0" encoding="UTF-8"?>
<!-- Generator: Adobe Illustrator 26.2.1, SVG Export Plug-In . SVG Version: 6.00 Build 0)  -->
<svg xmlns="http://www.w3.org/2000/svg" xmlns:xlink="http://www.w3.org/1999/xlink" version="1.1" x="0px" y="0px" viewBox="0 0 800 800" style="enable-background:new 0 0 800 800;" xml:space="preserve">
<style type="text/css">
	.st0{display:none;}
	.st1{display:inline;fill:none;stroke:#000000;stroke-miterlimit:10;}
</style>
<g id="Layer_1" class="st0">
	<rect x="69.9" y="69.9" class="st1" width="660.2" height="660.2"></rect>
</g>
<g id="Layer_2">
	<g id="layer1" transform="translate(2.9476594e-5,-4.0385895e-5)">
		<path id="path2556" d="M211.5,322.5c-16.2-0.1-31.6,8.1-31.6,8.1s-15.5,9.4-21.1,23.4c-0.3,1.4-30.9,60.8-30.9,60.8    c-38.8-11.2-57.6,11.5-57,20.3c9.4,23.5,55.2,6.8,59.8,1.3c2.5-1.4,4.2,0.3,4.2,0.3s11.2,7.5,12.5,8.1c1.3,0.6,7.7-0.3,7.7-0.3    c5-0.4,13.8-10.1,14.9-10.2c1.7,0,3.7,10.8,10.5,10.6c8.2,1.6,17.1-7.7,17.1-7.7c1.2-1.7,1.6-0.4,1.6-0.4    c-0.2,10.1,8,8.3,10.5,8.1c8.1-3.3,27.9-22.8,25.7-17.1c-0.8,1.6-6.9,12.9-6.9,12.9c-0.7,3,1.5,2.8,1.5,2.8l14.2-0.1    c2.4-1.5,14.9-28.3,13.4-24.6c4.5-8.1,14.7-11,14.7-11c1-0.3,0.5,1.1,0.5,1.1l-16.7,33.1c-0.3,0.9,1.3,1.7,1.3,1.7l14.5-0.3    c1.9-0.2,14.1-25.1,14.1-25.1c3.3-6.3,15.1-9.9,15.1-9.9c2.1-0.4,0.7,1.7,0.7,1.7l-11.4,23.9c-1.7,10.9,7.4,11.5,11.3,11    c3.9-0.6,10.2-2.8,22.7-12.1c2.5-1.9,3.1,0,3.1,0.4c0.1,13.4,14.8,11.8,14.8,11.8c4.4,1.1,22.2,0.7,37.1-29    c-5.4,20.2,5.7,25.7,6,26.3c0.4,0.7,6.4,2.8,8.6,2.3c22.7,2,32.3-33.3,32.3-33.3c5.1-3.8,6.4-4.9,8.5-6c5.1,0.5,6.4,0.6,8.9,0.9    c1.9,0.7,0.2,2.5-0.4,3.1c-23.2,18.1-13,32-12.2,31.7c10.2,13.8,31.2-10.2,35.2-10.6c5.1,20.3,20.6,11.5,21.2,11.6    c-1.4,4-5.3,13.9-8.7,20.3c-7.1,10-18.3-1.2-18.3-1.2l-2.8-0.1c-1.4,1.8-0.5,3.8-0.5,3.8c2.9,4.7,6.7,11.2,18.3,12.8    c11.7,0.5,18.4-12.4,18.4-12.4s16.4-30.3,17.5-33.9c5-4.5,13.6-10.9,20-15.6c4.2-0.9-10.5,23.1-11.6,26.5c-0.3,1.9,0.4,2,0.4,2    s11.2,0.6,13.3,0.3c2.1-0.3,12.6-25,16.3-29.7c3.2-5.4,13.6-10.3,13.6-10.3c2.2-0.5,1.5,2.2,1.5,2.2L551,434.2    c-3.3,11.6,6,11.7,7.7,11.6c4.5-0.3,21.2-9.9,21.2-9.9c2.3-1.7,2.3,1.1,2.3,1.1c-0.2,3.7,3.8,9.8,7.1,9    c11.9,1.1,29.9-18.7,30.4-16.8c0.1,0.4-6.7,13.8-6.7,13.8c0.3,1.1,1.5,1.6,1.5,1.6c0,0,11.5,0.1,14.2,0.1    c2.7,0,15.1-29.7,17.9-31.3c5.6-5.7,11.6-6.3,11.8-6.2c2-0.1-11.6,21.7-12.4,26.1c-3,12.6,5.9,12.4,5.9,12.4    c7.1,1.1,24.6-11.3,24.9-10.2c2-2,2.3,0.4,2.3,0.4v0.9c1.2,10.1,7.1,9,7.1,9c6.8,1.8,33.5-20.6,33.5-20.6l-4-4.4L699,432.9    c-1.4,0.7-2.2-0.8-2.2-0.8l18.7-36c0.9-0.9-0.4-1.9-0.4-1.9h-16.8c-1.2,1.3-1.9,2.2-1.9,2.2l-15.2,29.6l-16.7,8.2    c-1.8,0.5-1.3-1.3-1.3-1.3s13.9-27.2,15.1-31c0.8-1.8,0.4-4.6,0.4-4.6c-4.6-10.6-23.1,3.1-25.7,3.2c-0.1,0.1,2.3-4.8,2.3-4.8    c0.7-1.5-0.7-1.5-0.7-1.5l-15.6-0.1c0,0,0-1.1-0.5-0.1c-0.6,1-10.6,19.8-10.6,19.8l-25.1,19c-2.1,0.4-1.6-1.1-1.6-1.1l18.4-35.6    l0.1-1.5l-17.7-0.4l-14.7,28.2c-0.8,0.9-16.1,9.5-16.1,9.5c-2.3,0.7-2.4-1.3-2.4-1.3l13.6-26.3c3.1-10.3-8.2-13.3-13.7-11.3    c-3.8,1.4-7.3,2.6-7.3,2.6s-1.1,0.3-0.1-1.1c1.7-2.3,18.8-36.3,18.8-36.3c0.4-1-0.5-1.6-0.5-1.6l-15.6-0.1    c-1.3,0.6-1.5,1.5-1.5,1.5l-22.2,42.1L522,413.4c-1.2,0.8-1.2-0.5-1.2-0.5l9.1-17.3v-1.7l-16.4-0.1l-2.7,2.2    c-1.9-3.9-11.3-3.9-11.6-3.8c-19.7-0.6-30.8,27.3-30.8,27.3c-11,9.5-16,12.5-19.6,13c-3,0.2-3.9-2.3-3.9-2.3    c-4.2-12.8,22-24.9,22-24.9c0.9-0.5,4.7-11.8,4.2-11.8c-0.5,0-32.2,0-32.5-0.1c-1.8-0.7-10.2,7.3-12.8,9.1    c-7.4-21.8-36.2-5.3-40.2,4.4c-1.7,0.5-2.5,0.1-3.4,0.1c0.3-7.4-0.7-12-5.4-14.4c-2.5-1.4-12.9,0-12.9,0l17.6-35.1    c0.9-1.1-0.8-2.2-0.8-2.2H365c-0.7,0.4-1.5,1.3-1.5,1.3s-30,58-31.7,61.2c-1.8,3.1-23.7,14.8-23.7,14.8    c0.2-2.1,14.3-26.7,14.8-31.5c0.6-12.4-13.6-8.5-13.6-8.5s-8,5.3-15.3,9c-1.6-13.6-13.4-8.9-13.4-8.9l-13.4,8.7l2.4-6.3l0.5-2.4    l-16.1-0.4c-1.8,1.4-5.1,8.7-5.1,8.7l-5.1,9.4l-23,17.3c-2.2,1.3-1.1-1.7-1.1-1.7s15.5-30.4,15.9-30.6c1.3-0.8,0.3-2.7,0.3-2.7    l-15.6-0.1c0,0-2.6,4.5-3.2,5c-7.4-10.5-31.9-6.2-45,24.7c-1.7,2.1-3,3.5-3.9,3.9c-15.4,18-24.2,0.1-24.2,0.1l27.6-52.6    c0,0,12.5-28,20.4-36c20-13.5,25.7-0.8,25.7-0.8c1.7,4,7,18.4-20.2,25.4c-3.6,0.4-2.4,2-2.4,2c7.9,6.7,17.6,6,17.6,6    c9.6,1.9,35.5-12.4,26.1-35.2C231.3,325.7,221.2,322.6,211.5,322.5z M621.6,358.1c-14.2,0.5-15.1,19.6-0.5,21.6    C635.2,380.2,637.8,358.8,621.6,358.1z M718.5,358.1c-15.4,0.1-14.3,21.8,0.3,21.6C733.3,378.6,732,358.6,718.5,358.1z     M209.9,398.9c4.6,0.1,3.8,5.6,3,6.6c0.5,1.7-7.9,15.9-7.9,15.9c-9.7,12.2-14.4,9.9-14.4,9.9s-3.3-0.5-0.8-7    c2.7-4.6,8-16.5,13.6-23.4C206.2,399.4,208.3,398.8,209.9,398.9z M362.7,400.2c4.8,0.6,2.4,5,2.4,5l-13.2,25.9    c-4.2,5.2-8.1,3.4-8.1,3.4c-2.1-1.6,1.5-7.5,1.5-7.5l12.4-24.2C360.1,400.2,362.7,400.2,362.7,400.2z M499.8,400.3    c3.7-0.7,5.2,2.4,5.2,2.4s0.2,0.5-0.3,3.2c-1.1,4.2-12.6,24.2-12.6,24.2c-4.9,4.9-9.1,3.9-9.1,3.9c-2.4-0.7-1.5-4.3-1.5-4.3    s9.4-19.2,13.8-27.3C497.1,401.2,498.5,400.5,499.8,400.3z M410.1,400.5c2.1-0.3,4,0.5,3.6,4.8c-2.4,5.2-12,24.1-14,26.7    c-0.4,2.2-10.2,5.9-7.7-2.3c0,0,13.7-25.7,13.8-26.9C406,402.3,408.1,400.8,410.1,400.5z M100.6,421.6c8-0.2,15.3,2.4,15.3,2.4    s-1.9,6.3-19.6,9.1c-8.4-0.5-12.8-0.5-12.8-3.5C87.6,423.5,94.3,421.7,100.6,421.6z"></path>
	</g>
</g>
</svg>
