<?xml version="1.0" encoding="UTF-8"?>
<!-- Generator: Adobe Illustrator 26.2.1, SVG Export Plug-In . SVG Version: 6.00 Build 0)  -->
<svg xmlns="http://www.w3.org/2000/svg" xmlns:xlink="http://www.w3.org/1999/xlink" version="1.1" x="0px" y="0px" viewBox="0 0 800 800" style="enable-background:new 0 0 800 800;" xml:space="preserve">
<g id="Layer_1">
</g>
<g id="Layer_2">
	<g id="g10" transform="matrix(1.3333333,0,0,-1.3333333,-670.62132,1084.724)">
		<g id="g86" transform="matrix(6.9702248,0,0,6.9702248,760.80856,694.11517)">
			<path id="path88" d="M11.6-26.2l-3.1-6.1H8.5l-0.2,6.1H5.7l-0.1-0.2l0.2-0.1c0.2-0.2,0.3-0.3,0.3-0.7l0.4-7.4h2.9l4.6,8.4H11.6z      M2.4-30.6c-0.3-0.8-0.5-1.4-0.9-1.7c-0.3-0.3-0.6-0.5-1.4-0.5c-0.6,0-1,0.3-1,0.7c0,0.3,0.1,0.8,0.4,1.7     c0.3,0.8,0.5,1.4,0.9,1.7c0.3,0.3,0.6,0.5,1.4,0.5c0.6,0,1-0.3,1-0.7C2.8-29.2,2.7-29.7,2.4-30.6 M2.3-26.1H2     c-1.6,0-2.5-0.4-3.2-1.2c-0.9-1-1.8-3.6-1.8-5c0-1.4,0.9-2.4,2.9-2.4h0.3c1.6,0,2.5,0.4,3.3,1.2c0.9,1,1.8,3.6,1.8,5     C5.1-27.1,4.2-26.1,2.3-26.1 M-5.5-29.3c-0.1-0.4-0.3-0.4-0.5-0.5c-0.1-0.1-0.4-0.1-0.7-0.1h-1.1l0.6,1.7h1.3     c0.4,0,0.6-0.2,0.6-0.4C-5.4-28.8-5.4-29-5.5-29.3 M-5.7-26.2h-3.6l-0.1-0.2l0.1-0.1c0.2-0.2,0.1-0.3,0-0.7l-2.5-7.4h2.3l1,2.9     l0.8,0l0.9-2.9h2.3l-1.1,3c0.6,0.1,1,0.3,1.3,0.6c0.4,0.4,0.7,1,1,1.8c0.4,1.2,0.1,1.9-0.1,2.2C-3.8-26.6-4.4-26.2-5.7-26.2      M18.7-31.3l0.6,1.8h-3l0.5,1.3H20l0.7,1.9h-6.1l-0.1-0.2l0.1-0.1c0.2-0.2,0.1-0.3,0-0.7l-2.5-7.3h5.7l0.7,2h-3.3l0.5,1.4H18.7z      M25.5-29.3c-0.1-0.4-0.3-0.4-0.5-0.5c-0.1-0.1-0.4-0.1-0.7-0.1h-1.1l0.6,1.7h1.3c0.4,0,0.6-0.2,0.6-0.4     C25.7-28.8,25.6-29,25.5-29.3 M25.3-26.2h-3.6l-0.1-0.2l0.1-0.1c0.2-0.2,0.1-0.3,0-0.7l-2.5-7.4h2.3l1,2.9h0.8l0.9-2.9h2.3     l-1.1,3c0.6,0.1,1,0.3,1.3,0.6c0.4,0.4,0.7,1,1,1.8c0.4,1.2,0.1,1.9-0.1,2.2C27.3-26.6,26.6-26.2,25.3-26.2 M30.1-37.6     c-6.4-3.3-14.9-5.1-24-5.1c-9.1,0-17.6,1.8-24,5.1c-6.2,3.2-9.5,7.3-9.5,11.7c0,4.3,3.4,8.5,9.5,11.7C-11.6-10.9-3-9.1,6-9.1     c9.1,0,17.6-1.8,24-5.1c6.2-3.2,9.5-7.3,9.5-11.7C39.6-30.2,36.2-34.4,30.1-37.6 M30.9-12.6C24.3-9.1,15.4-7.2,6-7.2     s-18.2-1.9-24.9-5.3c-3.9-2-10.6-6.5-10.6-13.3c0-6.8,6.6-11.3,10.6-13.3c6.7-3.4,15.5-5.3,24.9-5.3c9.4,0,18.2,1.9,24.9,5.3     c3.9,2,10.6,6.5,10.6,13.3C41.5-19.1,34.9-14.6,30.9-12.6 M29.2-35.8c-6.9-3.6-15.4-4.9-23.1-4.9c-7.7,0-16.2,1.4-23.1,4.9     c-3.6,1.9-8.5,5.4-8.5,9.9c0,4.6,4.8,8,8.5,9.9c6.9,3.6,15.4,4.9,23.1,4.9c7.7,0,16.2-1.3,23.1-4.9c3.6-1.9,8.5-5.3,8.5-9.9     C37.7-30.5,32.8-33.9,29.2-35.8 M29.5-15.3c-7,3.6-15.7,5-23.5,5c-7.8,0-16.5-1.4-23.5-5c-3.9-2-8.9-5.7-8.9-10.6     c0-4.9,5-8.6,8.9-10.6c7-3.6,15.7-5,23.5-5c7.8,0,16.5,1.4,23.5,5c3.9,2,8.9,5.7,8.9,10.6C38.4-21,33.5-17.3,29.5-15.3      M-11.6-27.3l-6.4-2.1l-0.8-2.1h5.6l0.7,2h-3.9l4.4,1.5L-11.6-27.3z M13.8-18h0.9c0.6,0,1-0.2,1-0.7c0-0.3-0.1-0.7-0.4-1.7     c-0.3-0.8-0.5-1.3-0.8-1.7c-0.3-0.3-0.6-0.4-1.4-0.4h-0.8L13.8-18z M11.8-17.1l-2.5-7.4H13c1.6,0,2.5,0.4,3.2,1.1     c0.9,1,1.8,3.5,1.7,4.9c0,1.4-1,2.4-2.9,2.4h-3.4l-0.1-0.2l0.1-0.1C11.9-16.5,11.9-16.7,11.8-17.1 M25.8-19h-5.6l-0.7-2h3.9     l-4.4-1.5l-0.3-0.7l6.4,2.1L25.8-19z M0.7-24.4h2.1l1.8,5.5l1.1-5.5h2.1l2.9,8.4l-2.2,0L7-20.6L6.1-16h-3L3-16.2l0.1-0.1     c0.2-0.2,0.1-0.3,0-0.7L0.7-24.4z M-14.5-24.4l5.8,0l0.7,2h-3.3l2.2,6.4h-2.9l-0.1-0.2l0.1-0.1c0.2-0.2,0.2-0.3,0-0.7L-14.5-24.4     z M-2.2-18.3L-2.2-18.3l0.1-2.5h-1.6L-2.2-18.3z M-8.1-24.4h2.5l1.1,1.9h2.5l0-1.9h2.2L-0.3-16h-3.3l-0.1-0.2l0.1-0.1     c0.2-0.2,0.1-0.4-0.5-1.4L-8.1-24.4z"></path>
		</g>
	</g>
</g>
</svg>
