<?xml version="1.0" encoding="UTF-8"?>
<!-- Generator: Adobe Illustrator 26.2.1, SVG Export Plug-In . SVG Version: 6.00 Build 0)  -->
<svg xmlns="http://www.w3.org/2000/svg" xmlns:xlink="http://www.w3.org/1999/xlink" version="1.1" x="0px" y="0px" viewBox="0 0 800 800" style="enable-background:new 0 0 800 800;" xml:space="preserve">
<style type="text/css">
	.st0{display:none;}
	.st1{display:inline;fill:#FFFFFF;stroke:#000000;stroke-miterlimit:10;}
	.st2{fill-rule:evenodd;clip-rule:evenodd;}
</style>
<g id="Layer_2" class="st0">
	<rect x="68.9" y="68.9" class="st1" width="662.2" height="662.2"></rect>
</g>
<g id="Layer_3">
	<g>
		<path class="st2" d="M696.6,390.9c-4.7,0-9.4,0-14.2,0c0.3-0.7,0.6-1.4,1-2c2.3-4.6,4.7-6.1,9.9-6.1c2.4,0,4.8,0,7.2,0    C699.3,385.4,697.9,388.1,696.6,390.9z"></path>
		<path class="st2" d="M681.3,422.4c4.3-8.7,8.6-17.5,13-26.2c-4.7,0-9.4,0-14.2,0c-3.7,7.5-7.5,15.1-11.3,22.6    c-1.3,2.5-3,3.6-6,3.6c-11.5,0-23,0-34.5,0c4.7-9.3,9.3-18.7,14-28c1.9-3.9,2.7-4.2,7.3-4.2c1.4,0,2.7,0,4.1,0    c4,0,5.8-1.1,7.5-4.3c0.6-1.3,1.2-2.6,1.9-3.8c-4.9,0-9.7,0-14.7,0c2.1-4.2,4.2-8.4,6.3-12.8c-3.1,0-6.2,0-9.2,0    c-4,0-5.9,1-7.5,4.2c-1.4,2.8-2.8,5.6-4.2,8.4c-2.6,0-5.1,0-7.7,0c-1.3,2.7-2.7,5.4-4,8.1c2.6,0,5.1,0,7.7,0    c-1.6,3.2-12.8,25.4-14.3,28.6c-1.2,2.5-3,3.6-5.9,3.6c-10.2,0-20.4,0-30.5,0c5.4-9.9,10.9-19.8,16.3-29.7c-3.7,0-7.5,0-11.3,0    c-2.6,0-3.7,0.8-5.4,2.9c0-2.1-0.8-2.9-2.8-2.9c-2.6,0-5.2,0-7.7,0c-12.8,0-20,4-25.5,14.1c-2.2,4-4.4,8.1-6.6,12.2    c-1.4,2.5-3.1,3.5-6,3.5c-6.5,0-13.1,0-19.7,0.1c-7.1,0-9.9-1-10.7-4.8c-0.8-4,0.9-7.3,10.6-13.7c1.8-1.2,3.6-2.3,5.4-3.6    c2.5-1.6,3.5-2.5,3.2-4.3c-0.3-1.6-1.3-3.4-9-3.4c-12.4,0.1-24.7,0.1-37.1,0.1c-3.9,0-5.7,1-7.5,4.2c-4,7.3-8,14.6-12,21.9    c-1.4,2.5-3.1,3.6-5.9,3.6c-19.8,0-39.7,0-59.5,0c0.8-2.5,1.7-5,2.5-7.5c9.9,0,19.8,0,29.6,0c5.8,0,8.2-1.5,10.5-6.4    c0.9-2.2,1.9-4.5,2.8-6.7c0.7-1.6,1.3-4,0.1-5.8c-1.4-2.1-5-3.2-10.4-3.2c-9.5,0-19.1,0-28.5,0c-9.1,0-13.3,2.5-16.5,10    c-2,4.6-4,9.3-5.9,14c-2,4.7-5.2,5.7-9.7,5.7c-6.8,0-13.6,0-20.4,0c0.5-0.6,0.9-1.3,1.3-1.9c4-6,3.2-12.8-2.1-18.5    c-5.3-5.6-12.4-7.5-18.6-9.2c-5.3,0-10.6,0-15.9-0.1c-3.6,6.6-7.2,13.3-10.9,20c-4.5,8.3-9.5,9.7-18.3,9.7c-6.4,0-12.8,0-19.2,0    c5.4-9.9,10.9-19.8,16.3-29.7c-3.7,0-7.5,0-11.3,0c-2.7,0-3.8,0.8-5.4,2.9c0-2.1-0.8-2.9-2.9-2.9c-2.5,0-5.1,0-7.7,0    c-12.8,0-20,4-25.5,14.1c-2.2,4-4.4,8.1-6.6,12.2c-1.4,2.5-3.1,3.5-6,3.5c-9.7,0-19.5,0-29.2,0c8.2-15.2,16.5-30.2,24.8-45.4    c1.4-2.6-0.5-5.8-3.4-5.8c-38.8,0-77.5,0-116.3,0c-7.9,0-11.9,2-15.6,8.3c16.8,0,33.5,0,50.2,0c-9.3,17.1-18.7,34.2-28,51.3    c4.8,0,9.6,0,14.5,0c9.3-17,18.7-34.2,28-51.1c6.7,0,13.5,0,20.1,0c-9.3,17-18.7,34.2-28,51.1c4.8,0,9.6,0,14.5,0    c9.3-17,18.7-34.2,28-51.1c6.7,0,13.5,0,20.1,0c-7.7,14.1-15.4,28.1-23.1,42.3c-1,1.9-2.1,4.5-1,6.4c1,1.6,3.3,2.4,6.8,2.4    c12.7,0,25.4,0,38.1,0c1.9,0,2.7-0.6,3.8-1.9c0,1.5,1.2,1.9,2.7,1.9c21.8,0,43.7,0,65.5,0c13,0,19.9-3.8,25.5-14.1    c2.9-5.2,5.7-10.6,8.6-15.8c0.1,0.1,0.8,0.2,0.9,0.2c10.4,1.9,15.6,5.8,16,11.7c0.2,2.4-0.6,4.6-2.1,6.4c-1.9,2.1-4.9,3.2-8.1,3.3    c-6.6,0-9.2,2.5-11.9,8.2c18.5,0,37,0,55.5,0c1.8,0,2.7-0.6,3.8-1.9c0.1,1.5,1.3,1.9,2.8,1.9c27.3,0,54.7,0,82.1,0    c5.5,0,7.9-1.4,10.7-6.5c3.2-5.8,6.4-11.7,9.5-17.6c2.2-4,4.9-5.5,9.7-5.5c4.8,0,9.6,0,14.5,0c-2.5,1.7-5.1,3.8-7.2,5.9    c-2.7,2.9-5.4,6.7-5.8,11.8c-0.4,3.5,0.5,6.5,2.5,8.7c1.9,2.1,4.7,3.2,8.1,3.2c11.3,0,22.5,0,33.8,0c1.8,0,2.7-0.6,3.8-1.9    c0,1.5,1.3,1.9,2.8,1.9c23.6,0,47.3,0,70.9,0c1.9,0,2.7-0.6,3.8-1.9c0,1.5,1.2,1.9,2.7,1.9c35,0,70,0,105,0c6.3,0,9.5-2,10.7-6.8    c0.1-0.5,0.3-1,0.4-1.5C714.4,422.3,697.8,422.3,681.3,422.4z M393.6,404.8c1.4-4.1,4.7-4.5,7.7-4.5c5.4,0,10.8,0,16.2,0    c-0.4,1.1-0.7,2.2-1.1,3.3c-1.3,3.8-4.3,4.2-6.9,4.2c-5.6,0-11.3,0-16.9,0C392.9,406.8,393.3,405.7,393.6,404.8z M246.5,416.8    c-2.3,4.1-4.9,5.6-9.7,5.6c-2.7,0-5.3,0-8,0c2.9-5.3,5.8-10.6,8.6-15.8c2.2-4,4.9-5.6,9.6-5.6c2.7,0,5.3,0,8,0    C252.2,406.3,249.3,411.6,246.5,416.8z M567.4,416.8c-2.2,4.1-4.8,5.6-9.6,5.6c-2.7,0-5.3,0-8,0c2.9-5.3,5.8-10.6,8.6-15.8    c2.1-4,4.9-5.6,9.6-5.6c2.7,0,5.3,0,8,0C573.2,406.3,570.4,411.6,567.4,416.8z"></path>
	</g>
</g>
</svg>
