<?xml version="1.0" encoding="UTF-8"?>
<!-- Generator: Adobe Illustrator 26.2.1, SVG Export Plug-In . SVG Version: 6.00 Build 0)  -->
<svg xmlns="http://www.w3.org/2000/svg" xmlns:xlink="http://www.w3.org/1999/xlink" version="1.1" x="0px" y="0px" viewBox="0 0 800 800" style="enable-background:new 0 0 800 800;" xml:space="preserve">
<g id="Layer_1">
</g>
<g id="Layer_2">
	<path id="path1961" d="M594.4,392.1c91-58.9,213.3-60.8,70.6,34.4l2.3-3c40.4-55.5-41.9-43-71-32.1L594.4,392.1z M261.4,434h38.5   v15.1h-44.5c-18.9,0-27.2-5.7-27.2-20.8V425c0-12.8,7.6-21.1,26.4-21.1h45.3v15.1h-38.5c-3.8,0-6.8,3-6.8,6.8v1.9   C254.8,431.2,257.8,434,261.4,434L261.4,434z M333.9,396.3V434h22.7v15.1h-52.9v-52.9H333.9z M190.8,403.1   c5.2-4.2,11.8-6.6,18.5-6.8h15.1v52.9h-30.2v-26.4l-29.1,26.4h-27.6v-26.4L104,449.1H69.7l60-45.3c5.7-4.2,9.4-7.6,19.3-7.6h18.9   v26.4L190.8,403.1z M447.2,408.7c0-4.8,3.9-8.7,8.6-8.7c0.3,0,0.5,0,0.8,0h35.9v15.1h-18.9v34h-26.4V408.7z M624.2,400   c22.7,0,30.6,4.9,30.6,21.5v27.6h-26.4v-18.9c0-6.3-5.1-11.3-11.3-11.3h-11.3v30.2h-26.4V400H624.2z M418.1,400   c17.4,0,25.3,7.2,25.3,19.3v11.3c0,14-7.9,18.5-27.2,18.5h-29.8c-10.9,0-18.9-1.1-23-4.9c-2-2.5-3.1-5.5-3-8.7v-1.9   c0-7.6,4.5-14.7,18.9-14.7h34c0-3.4,0.4-3.8-3.8-3.8h-45.3V400H418.1z M413.2,432.1v-1.9h-20.8c-1,0-1.9,0.8-1.9,1.9   s0.8,1.9,1.9,1.9h18.9C412.4,434,413.2,433.2,413.2,432.1z M551.4,400c20,0,24.2,6,24.2,14.3v1.9c0,9.1-7.2,14-18.9,14h-34   c0,3.4,3.4,3.8,7.6,3.8h41.5v15.1H520c-16.2,0-23.8-6.8-23.8-19.3v-8.7c0-14.3,7.9-21.1,26-21.1H551.4z M547.2,418.9   c1,0,1.9-0.8,1.9-1.9s-0.8-1.9-1.9-1.9h-22.7c-1,0-1.9,0.8-1.9,1.9v1.9H547.2z"></path>
</g>
</svg>
