<?xml version="1.0" encoding="UTF-8"?>
<!-- Generator: Adobe Illustrator 26.2.1, SVG Export Plug-In . SVG Version: 6.00 Build 0)  -->
<svg xmlns="http://www.w3.org/2000/svg" xmlns:xlink="http://www.w3.org/1999/xlink" version="1.1" x="0px" y="0px" viewBox="0 0 800 800" style="enable-background:new 0 0 800 800;" xml:space="preserve">
<style type="text/css">
	.st0{display:none;}
	.st1{display:inline;fill:#FFFFFF;stroke:#000000;stroke-miterlimit:10;}
</style>
<g id="Layer_2" class="st0">
	<rect x="68.9" y="68.9" class="st1" width="662.2" height="662.2"></rect>
</g>
<g id="Layer_3">
	<path id="path9674" d="M388.3,361.9c-5.5,1.5-10.5,2.3-16.7,3v1.9c6.9,0,7.8,0.8,7.8,6.5v19.3c-4.1-6.6-7.3-8.6-13.2-8.6   c-11.8,0-20.1,11.1-20.1,27c0,15.9,8.4,27,20.4,27c6.3,0,10.6-2.9,13.7-9c0.4,4.2,0.4,4.6,1.6,8.8c4.5-1.4,6.4-1.9,12.9-2.6   l1.6-0.2v-1.9c-7.4-0.2-8-0.8-8-7.5L388.3,361.9z M90.6,362.7c-4.2,0.4-6.4,0.6-10.5,0.6c-3.1,0-4.7-0.1-9-0.4v2.7   c7.6,0.4,9.1,1.5,9.1,6.6v0.7L77.9,427c-0.2,6-1.3,6.8-9,7.4v2.6c5.7-0.4,7.9-0.5,11-0.5c3.1,0,5.3,0.1,10.9,0.5v-2.6   c-7.7-0.6-9.2-1.5-9.2-6.4v-1l2.2-57.2l18.1,48.9l1.3,3.9l1.6,4.3l1.5,4.3l1.2,3.5h1.7l1.2-3.6l1.4-4.2l1.5-4.1l1.3-3.7l18.2-49.2   l1,57.1v0.5c0,5.2-1.7,6.4-9.2,6.8v2.6c7-0.7,9.6-0.9,13.8-0.9c4.2,0,6.8,0.2,13.8,0.9v-2.6c-7.9-0.6-8.9-1.4-9-7.4l-1.2-54.2v-0.8   c0-5,1.7-6.1,9.2-6.5v-2.7c-4.2,0.3-6,0.4-8.7,0.4c-3.3,0-5.6-0.1-10.6-0.6l-20.8,55.8L90.6,362.7z M519.7,363.2v2.8   c7.9,0.4,9,1.3,9,7.3v53.5c0,6-0.9,6.7-9,7.4v2.6h27.9c8.2,0,12.6-1,17.2-3.9c5.5-3.5,9.2-10.3,9.2-17.2c0-6-2.5-11.4-6.8-14.7   c-2.3-1.8-4.7-2.8-8.7-3.5c7.9-3,12.1-8.6,12.1-16.3c0-5.7-2.4-10.8-6.6-14c-3.7-2.8-8.1-4-15.2-4L519.7,363.2z M538,366.6h9.4   c9.3,0,13.3,4.5,13.3,14.8c0,5.1-1.2,8.7-3.6,11.6c-2.4,2.8-5.4,3.6-11.6,3.6H538V366.6z M284.3,382.4l-3,5.6   c-3.5-3.4-6.5-4.6-11.2-4.6c-13,0-21.8,11.3-21.8,27.7c0,16.1,8.7,26.9,21.5,26.9c9.9,0,16.2-6.4,17.6-18.2h-4.5   c-1.3,9.7-5.4,14.6-12.2,14.6c-8.5,0-12.8-7.8-12.8-23.3c0-15.8,4.9-24.7,13.1-24.7c6.7,0,10.8,4.6,12.8,14.2h2.4v-18.2   L284.3,382.4z M482,382.7l-1.9,4.5c-3.7-2.5-6.9-3.5-11.2-3.5c-9.7,0-16.5,6-16.5,14.7c0,6.4,2.5,9.5,10.6,13.2l5.1,2.3l4.2,1.9   c5.4,2.4,7.5,5,7.5,8.7c0,5.6-4.9,9.9-11.4,9.9c-7.7,0-12.4-4.9-14.3-14.9l-2.4,0.1v18.4h2l2.6-5c4.2,3.3,8.2,4.6,13.2,4.6   c10.4,0,17.8-6.6,17.8-15.9c0-6.5-3-10-11.4-13.7l-4.6-2c-10-4.4-11.7-5.8-11.7-10.3c0-5.2,4.5-9.2,10.4-9.2c7,0,10.6,4.2,11.6,13   h2.5v-17.1L482,382.7z M645.1,382.7c-4.4,1.5-8.2,2.4-14.6,3.3v1.9c0.6,0,1.1,0.1,1.4,0.1c5.5,0,6.2,0.7,6.3,5.2v1.6v34.1   c0,4.7-1.1,5.6-7.8,6v2.2c5.7-0.6,8-0.7,11.9-0.7c4,0,6.2,0.1,11.9,0.7v-2.2c-5.7-0.2-7.2-1.3-7.2-5.7v-26.7c0-9,4-13.8,11.5-13.8   c7.1,0,9.9,3.9,9.9,13.5v27c0,4.4-1.4,5.5-7.4,5.7v2.2c5.7-0.6,7.9-0.7,12-0.7c4,0,6.2,0.1,12,0.7v-2.2c-6.7-0.3-7.8-1.2-7.8-6   v-26.5c0-4.2-0.6-7.3-1.7-9.9c-2.2-5.4-7.9-8.8-14.6-8.8c-6.4,0-10.9,2.6-14.9,8.6C645.9,388.1,645.6,385.2,645.1,382.7z    M220.5,382.9c-4.5,1.3-8.3,2-14.6,2.5v2h1.4c5.7,0.1,6.3,0.7,6.4,5.4v1.8v34.3c0,4.7-1.2,5.6-7.9,6v2.2c6.1-0.6,8.4-0.7,12.4-0.7   c3.9,0,6.2,0.1,12.2,0.7v-2.2c-6.7-0.3-7.8-1.2-7.8-6v-23.1c0-10.9,3.6-17.9,9.4-17.9c2,0,3.3,1.1,3.3,2.6v1l-0.2,1.1   c-0.1,0.4-0.2,0.9-0.2,1.1c0,2.2,2,3.7,4.5,3.7c2.8,0,4.6-2.1,4.6-5.3c0-5.3-4.1-8.9-9.6-8.9c-5.7,0-10.5,3.6-12.9,9.9v-1.2   C221.3,388.8,221.1,387,220.5,382.9z M179.2,383.4c-13.2,0-21.5,10.7-21.5,27.7c0,17,8.3,26.9,22.5,26.9c10.8,0,17.9-6.7,19.3-18.1   h-4.4c-1.3,9.4-6.2,14.5-14,14.5c-10,0-14.4-7.7-14.6-24.9h32.9C199.2,392.4,192.2,383.4,179.2,383.4z M316.8,383.4   c-13.2,0-21.5,10.7-21.5,27.7c0,17,8.3,26.9,22.5,26.9c10.8,0,17.9-6.7,19.3-18.1h-4.4c-1.3,9.4-6.2,14.5-14,14.5   c-10,0-14.5-7.7-14.6-24.9H337C336.8,392.4,329.8,383.4,316.8,383.4z M422,383.4c-13.2,0-21.5,10.7-21.5,27.7   c0,17,8.3,26.9,22.5,26.9c10.8,0,17.9-6.7,19.3-18.1h-4.4c-1.3,9.4-6.2,14.5-14,14.5c-10,0-14.5-7.7-14.6-24.9h32.9   C442,392.4,435,383.4,422,383.4z M604.5,383.4c-13.2,0-21.5,10.7-21.5,27.7c0,17,8.3,26.9,22.5,26.9c10.8,0,17.9-6.7,19.3-18.1   h-4.4c-1.3,9.4-6.2,14.5-14,14.5c-10,0-14.5-7.7-14.6-24.9h32.9C624.4,392.4,617.5,383.4,604.5,383.4z M693.2,384.7l-2.6,14.3h2.2   c4-9.9,5.7-11.5,12.9-11.5h13.6l-29.9,49.2h37.9l2.9-15.9h-2.3c-3.3,10-6.4,13-13.9,13h-12.9l30-49.2L693.2,384.7z M179.1,386.2   c7.2,0,10.8,6.2,11.5,19.2h-23.8C167.8,392.7,172,386.2,179.1,386.2z M316.7,386.2c7.2,0,10.8,6.2,11.5,19.2h-23.8   C305.4,392.7,309.6,386.2,316.7,386.2z M421.9,386.2c7.2,0,10.8,6.2,11.5,19.2h-23.8C410.6,392.7,414.8,386.2,421.9,386.2z    M604.4,386.2c7.2,0,10.8,6.2,11.5,19.2H592C593.1,392.7,597.3,386.2,604.4,386.2z M367.2,387.1c8.2,0,12.4,8.4,12.4,24.6   c0,15.3-4.1,23.3-12,23.3c-7.9,0-12.1-8.3-12.1-24C355.4,394.9,359.3,387.1,367.2,387.1z M538,400h10.5c5.8,0,9.2,1,11.7,3.5   c2.5,2.5,4,7.3,4,12.6c0,11-5.5,17.2-15.3,17.2h-4c-5.8,0-6.8-0.9-6.8-5.7V400z M493.8,404.4v5.7h24.6v-5.7H493.8z"></path>
</g>
</svg>
