<?xml version="1.0" encoding="UTF-8"?>
<!-- Generator: Adobe Illustrator 26.2.1, SVG Export Plug-In . SVG Version: 6.00 Build 0)  -->
<svg xmlns="http://www.w3.org/2000/svg" xmlns:xlink="http://www.w3.org/1999/xlink" version="1.1" x="0px" y="0px" viewBox="0 0 800 800" style="enable-background:new 0 0 800 800;" xml:space="preserve">
<style type="text/css">
	.st0{fill-rule:evenodd;clip-rule:evenodd;}
</style>
<g id="Layer_1">
</g>
<g id="Layer_2">
	<g id="layer1">
		<path id="O" class="st0" d="M172.3,422.1h72.9c3.3,0,6-2.7,6-5.9v-32.3c0-3.3-2.7-5.9-6-5.9h-72.9c-3.3,0-6,2.7-6,5.9v32.3    C166.3,419.4,169,422.1,172.3,422.1L172.3,422.1z M177,386.5h64c1.1,0,2,0.9,2,2v23.1c0,1.1-0.9,2-2,2h-64c-1.1,0-2-0.9-2-2v-23.1    C175,387.4,175.9,386.5,177,386.5L177,386.5z"></path>
		<path id="P" class="st0" d="M69.9,422.1h8.6v-10.5h69.9c3.5,0,6.3-2.8,6.3-6.3v-21.1c0-3.4-2.8-6.3-6.3-6.3H78.5h-2.3h-6.3v6.3    v21.1V422.1L69.9,422.1z M78.5,403v-16.5h2.3h56.3h6.3c1.5,0,2.7,1.2,2.7,2.6v11.2c0,1.4-1.2,2.6-2.7,2.6h-6.3H80.8L78.5,403    L78.5,403z"></path>
		<path id="R" class="st0" d="M262.5,422.1h8.6v-10.5h62.1l5.4,10.5h9.3l-5.5-10.7c2.8-0.6,4.9-3.1,4.9-6.1v-21.1    c0-3.4-2.8-6.3-6.3-6.3h-69.9h-2.3h-6.3v6.3v21.1V422.1L262.5,422.1z M271.1,403v-16.5h2.3h56.3h6.3c1.5,0,2.7,1.2,2.7,2.6v11.2    c0,1.4-1.2,2.6-2.7,2.6h-6.3h-56.3L271.1,403L271.1,403z"></path>
		<polygon id="H" class="st0" points="550.8,422.1 559.4,422.1 559.4,404.3 622.7,404.3 622.7,422.1 631.3,422.1 631.3,377.9     622.7,377.9 622.7,395.7 559.4,395.7 559.4,377.9 550.8,377.9   "></polygon>
		<path id="C" class="st0" d="M464,422.1h73.9v-8.7c-0.2,0.1-0.4,0.1-0.7,0.1h-68.6c-1.1,0-2-0.9-2-2v-23.1c0-1.1,0.9-2,2-2h68.6    c0.2,0,0.5,0,0.7,0.1v-8.7H464c-3.3,0-6,2.7-6,5.9v32.3C458,419.4,460.7,422.1,464,422.1L464,422.1z"></path>
		<polygon id="E" class="st0" points="644.6,422.1 649.6,422.1 653.2,422.1 730.1,422.1 730.1,413.5 653.2,413.5 653.2,404.3     730.1,404.3 730.1,395.7 653.2,395.7 653.2,386.5 730.1,386.5 730.1,377.9 653.2,377.9 649.6,377.9 644.6,377.9   "></polygon>
		<path id="S" class="st0" d="M371.2,390.4v-2c0-1.1,0.9-2,2-2h68.6c0.2,0,0.5,0,0.7,0.1v-8.7h-73.9c-3.3,0-6,2.7-6,5.9v2.6v4v7.9    c0,3.3,2.7,5.9,6,5.9h6.3v0.1c0.2-0.1,0.4-0.1,0.7-0.1h56.3c1.1,0,2,0.9,2,2v3.3v2c0,1.1-0.9,2-2,2h-68.6c-0.2,0-0.5,0-0.7-0.1    v8.7h73.9c3.3,0,6-2.7,6-5.9v-2.6v-4v-7.9c0-3.3-2.7-5.9-6-5.9h-6.3v-0.1c-0.2,0.1-0.4,0.1-0.7,0.1h-56.3c-1.1,0-2-0.9-2-2    L371.2,390.4L371.2,390.4z"></path>
	</g>
</g>
</svg>
