<?xml version="1.0" encoding="UTF-8"?>
<!-- Generator: Adobe Illustrator 26.2.1, SVG Export Plug-In . SVG Version: 6.00 Build 0)  -->
<svg xmlns="http://www.w3.org/2000/svg" xmlns:xlink="http://www.w3.org/1999/xlink" version="1.1" x="0px" y="0px" viewBox="0 0 800 800" style="enable-background:new 0 0 800 800;" xml:space="preserve">
<style type="text/css">
	.st0{display:none;}
	.st1{display:inline;fill:#FFFFFF;stroke:#000000;stroke-miterlimit:10;}
</style>
<g id="Layer_2" class="st0">
	<rect x="68.9" y="68.9" class="st1" width="662.2" height="662.2"></rect>
</g>
<g id="Layer_3">
	<path d="M227.2,439.3h16.5v-104h-17.4v104H227.2 M261.8,439.3h16.5v-104h-17.3v104H261.8 M537.9,471c10.7,1.8,20.3-2.6,26.6-8.5   c8.9-8.4,14.6-19.4,24.1-45.1l18.2-48.5l0.4-1h-17.4l-0.2,0.5l-16.4,48.2l-17.4-48.2l-0.2-0.5h-19l0.4,1l27.2,68.2   c-2.2,6.1-5.7,11.2-9.1,14.6c-4.4,4.2-10.4,6.1-17.1,4.9V471"></path>
	<path d="M500.9,365.9c-21.4,0-36.1,15.5-36.1,37.5c0,22.5,14.5,37.6,36.1,37.6c21.6,0,36-15.2,36-37.6   C536.9,381.4,522.2,365.9,500.9,365.9z M500.8,427.2c-10.8,0-18.9-9.4-18.9-23.8c0-14.4,8.1-23.8,18.9-23.8c11,0,19,9.4,19,23.8   C519.8,417.8,511.7,427.2,500.8,427.2 M179,365.7c-22,0-36.1,15.2-36.1,37.6c0,22.5,14.1,37.6,36.1,37.6c22,0,36-15.2,36-37.6   C215,380.9,201,365.7,179,365.7L179,365.7z M178.9,427c-10.8,0-18.9-9.5-18.9-23.8c0-14.4,8.1-23.8,18.9-23.8c11,0,19,9.4,19,23.8   C197.9,417.5,189.8,427,178.9,427 M345.3,384.9h34V398h-34V384.9z M131.1,409.4c3.6,11.4,5.5,22.8,6.8,29.6l-18.5,0.1   c-1-5.9-2.1-14-5.3-23.9c-3.7-11.8-8.3-17.2-19.3-17.2h-8.4v41H68.9v-99.6c3.7,0,8.1-0.3,12.7-0.3h14c14.1,0,23.4,2.9,29.9,8.5   c5.4,4.6,8.3,11.7,8.3,19.7c0,13.2-7.7,20.8-16.2,24.1C123.9,394.4,127.9,399.5,131.1,409.4L131.1,409.4z M97.4,353.4h-5.8   c-2.5,0-4.1,0.2-5.3,0.2v31.3h10.1c11.9,0,20.1-6.2,20.1-15.9C116.6,358.8,110,353.5,97.4,353.4 M453.9,409.4   c3.6,11.4,5.5,22.8,6.8,29.6l-18.5,0.1c-1-5.9-2.1-14-5.3-23.9c-3.7-11.8-8.3-17.2-19.3-17.2h-8.4v41h-17.4v-99.6   c3.7,0,8.1-0.3,12.7-0.3h14c14.1,0,23.4,2.9,29.9,8.5c5.4,4.6,8.3,11.7,8.3,19.7c0,13.2-7.7,20.8-16.2,24.1   C446.7,394.4,450.6,399.5,453.9,409.4z M420.2,353.4h-5.8c-2.5,0-4.1,0.2-5.3,0.2v31.3h10.1c11.9,0,20.1-6.2,20.1-15.9   C439.3,358.8,432.7,353.5,420.2,353.4 M293.8,423c4,2.5,11.3,4.8,17.6,4.8c8.5,0,11.9-2.8,11.9-8c0-5.3-2.7-7.6-11.8-10.9   c-13.4-4.7-19.2-12.6-19.2-21c0-12,10-22,26-22c7.6,0,14.2,2.3,18.3,4.6l-3.4,11.6c-3.9-1.8-8.4-3.4-14.9-3.3   c-6.6,0.1-9.3,3.1-9.3,7.4c0,4.9,5,7.8,11.5,10c12.8,4.3,19.6,11.5,19.6,22.3c-0.1,12.8-10.8,22.2-28.8,22.2   c-8.2,0-15.9-1.7-20.9-5.4L293.8,423 M662.9,436.6c-3.6,1.7-11.1,3.9-20.2,3.9c-20.8-0.2-36.2-14.4-36.2-36.4c0-21.4,13.9-38,39-38   c7.1,0,13.7,1.9,17.6,3.7l-3,12.6c-3-1.5-7.5-2.5-14.2-2.5c-14.7,0-21.6,9.7-21.5,23.4c0,15.4,8.4,23.9,21.4,23.9   c6.6,0,11.3-1.5,14.8-3L662.9,436.6 M683.5,407.4c0.5,14.7,9.3,19.9,21.4,19.9c8.6,0,14.5-1.4,19.6-3.4l2.6,12   c-7.7,3.3-16,5-24.5,5c-22.6,0-36-14.9-36-36.5c0-20.3,12.2-38.2,34.3-38.2c23.1,0,30.1,19.5,30.1,34c0,3.1,0,5.5-0.4,7.1   L683.5,407.4L683.5,407.4z M714.9,395.2c0.1-7.1-2-16.7-15-16.7c-11.9,0-15.4,8.8-16.3,16.7H714.9"></path>
</g>
</svg>
