<?xml version="1.0" encoding="UTF-8"?>
<!-- Generator: Adobe Illustrator 26.2.1, SVG Export Plug-In . SVG Version: 6.00 Build 0)  -->
<svg xmlns="http://www.w3.org/2000/svg" xmlns:xlink="http://www.w3.org/1999/xlink" version="1.1" x="0px" y="0px" viewBox="0 0 800 800" style="enable-background:new 0 0 800 800;" xml:space="preserve">
<style type="text/css">
	.st0{display:none;}
	.st1{display:inline;fill:#FFFFFF;stroke:#000000;stroke-miterlimit:10;}
</style>
<g id="Layer_2" class="st0">
	<rect x="68.9" y="68.9" class="st1" width="662.2" height="662.2"></rect>
</g>
<g id="Layer_3">
	<g id="layer1" transform="translate(858.00438,-193.12212)">
		<g id="g11594">
			<g id="g10482" transform="matrix(20.326751,0,0,-20.326751,-8.7527219,193.32539)">
				<path id="path10484" d="M-16-17.6l-0.8,0v-4.2h3.8c0.4,0.2,0.6,0.5,0.7,0.8H-16L-16-17.6z M-9.8-18.4h3.2      c0.4,0.1,0.8,0.5,0.9,0.8h-4.9C-10.6-17.9-10.3-18.3-9.8-18.4 M-20.1-18.4c0.4,0.1,0.8,0.5,0.9,0.8h-4.6v-2.5h3.8v-0.9l-3,0      c-0.5-0.1-0.9-0.4-1.1-0.9l0.2,0h4.6v2.6H-23v0.8H-20.1L-20.1-18.4z M-10.6-21.8h0.8v1.7h3v-1.7h0.8v2.6l-4.6,0L-10.6-21.8      L-10.6-21.8z M-30.2-18.4h3.2c0.4,0.1,0.8,0.5,0.9,0.8H-31C-30.9-17.9-30.6-18.3-30.2-18.4 M-38.4-17.6c0.1-0.4,0.4-0.7,0.9-0.8      h1.3l0.1,0v-3.4h0.8v3.4l0.1,0h1.3c0.4,0.1,0.8,0.5,0.9,0.8v0L-38.4-17.6C-38.4-17.5-38.4-17.6-38.4-17.6z M-30.2-21.8h3.2      c0.4,0.1,0.8,0.5,0.9,0.8H-31C-30.9-21.3-30.6-21.7-30.2-21.8 M-30.2-20.1h3.2c0.4,0.1,0.8,0.5,0.9,0.8H-31      C-30.9-19.6-30.6-20-30.2-20.1"></path>
			</g>
		</g>
	</g>
</g>
</svg>
